<svg width="17" height="22" viewBox="0 0 17 22" fill="none" xmlns="http://www.w3.org/2000/svg">
<path d="M10.0279 0H2.75C2.02065 0 1.32118 0.289731 0.805456 0.805456C0.289731 1.32118 0 2.02065 0 2.75V19.25C0 19.9793 0.289731 20.6788 0.805456 21.1945C1.32118 21.7103 2.02065 22 2.75 22H13.75C14.4793 22 15.1788 21.7103 15.6945 21.1945C16.2103 20.6788 16.5 19.9793 16.5 19.25V6.47212C16.4999 6.10748 16.355 5.7578 16.0971 5.5L11 0.402875C10.7422 0.144995 10.3925 7.78764e-05 10.0279 0ZM10.3125 4.8125V2.0625L14.4375 6.1875H11.6875C11.3228 6.1875 10.9731 6.04263 10.7152 5.78477C10.4574 5.52691 10.3125 5.17717 10.3125 4.8125ZM3.4375 12.375C3.25516 12.375 3.0803 12.3026 2.95136 12.1736C2.82243 12.0447 2.75 11.8698 2.75 11.6875C2.75 11.5052 2.82243 11.3303 2.95136 11.2014C3.0803 11.0724 3.25516 11 3.4375 11H13.0625C13.2448 11 13.4197 11.0724 13.5486 11.2014C13.6776 11.3303 13.75 11.5052 13.75 11.6875C13.75 11.8698 13.6776 12.0447 13.5486 12.1736C13.4197 12.3026 13.2448 12.375 13.0625 12.375H3.4375ZM2.75 14.4375C2.75 14.2552 2.82243 14.0803 2.95136 13.9514C3.0803 13.8224 3.25516 13.75 3.4375 13.75H13.0625C13.2448 13.75 13.4197 13.8224 13.5486 13.9514C13.6776 14.0803 13.75 14.2552 13.75 14.4375C13.75 14.6198 13.6776 14.7947 13.5486 14.9236C13.4197 15.0526 13.2448 15.125 13.0625 15.125H3.4375C3.25516 15.125 3.0803 15.0526 2.95136 14.9236C2.82243 14.7947 2.75 14.6198 2.75 14.4375ZM3.4375 17.875C3.25516 17.875 3.0803 17.8026 2.95136 17.6736C2.82243 17.5447 2.75 17.3698 2.75 17.1875C2.75 17.0052 2.82243 16.8303 2.95136 16.7014C3.0803 16.5724 3.25516 16.5 3.4375 16.5H8.9375C9.11984 16.5 9.29471 16.5724 9.42364 16.7014C9.55257 16.8303 9.625 17.0052 9.625 17.1875C9.625 17.3698 9.55257 17.5447 9.42364 17.6736C9.29471 17.8026 9.11984 17.875 8.9375 17.875H3.4375Z" fill="white"/>
</svg>
