<svg width="110" height="126" viewBox="0 0 110 126" fill="none" xmlns="http://www.w3.org/2000/svg">
<path d="M51.4689 35.4505L53.2638 32.2927C32.6554 22.5588 14.6741 19.6132 11.6807 24.6807C8.63994 29.8284 20.0895 43.9346 39.4071 56.6708L41.8468 52.3788C26.1421 42.4647 15.8955 32.7243 18.4053 28.4754C20.9005 24.2513 34.8563 27.3968 51.4689 35.4505Z" fill="#0099FF"/>
<path d="M50.5377 57.5619C47.5001 55.8478 44.5902 54.1106 41.8468 52.3788L39.4071 56.6708C42.2252 58.5288 45.2107 60.3576 48.3431 62.1252C53.8976 65.2596 59.1844 67.8668 64.0824 69.9595L66.3488 65.9722C61.2139 63.4271 55.8239 60.5449 50.5377 57.5619Z" fill="#0099FF"/>
<path d="M92.6513 67.7156L89.1439 66.2021L96.5791 72.5886L103.919 73.4442L101.167 72.4105L101.155 72.3357C100.212 66.8097 91.2774 56.4897 77.4241 46.4874L75.5647 49.7586C85.1283 56.6742 91.5395 63.2868 92.6066 67.5251L92.6513 67.7156Z" fill="#0099FF"/>
<path d="M64.0824 69.9595C79.995 76.7582 91.8046 78.1272 95.3623 74.5061C92.3699 77.3127 80.3006 72.8871 66.3488 65.9722L64.0824 69.9595Z" fill="#0099FF"/>
<path d="M92.0952 126L110 94.5H50.1334L64.0824 69.9595C59.1844 67.8668 53.8976 65.2596 48.3431 62.1252C45.2107 60.3576 42.2252 58.5288 39.4071 56.6708L35.8096 63L17.9048 94.5L0 126H32.2286H64.4573H92.0952Z" fill="white"/>
<path d="M103.848 0H71.6192L53.2638 32.2927L51.4689 35.4505L41.8468 52.3788C44.5902 54.1106 47.5001 55.8478 50.5377 57.5619C55.8239 60.5449 61.2139 63.4271 66.3488 65.9722L75.5647 49.7586L77.4241 46.4874L103.848 0Z" fill="white"/>
</svg>
