<svg width="73" height="73" viewBox="0 0 73 73" fill="none" xmlns="http://www.w3.org/2000/svg">
<path d="M57.5827 73L68 54.75H33.1685L22.7512 73H41.5024H57.5827Z" fill="white"/>
<path d="M4 73H22.7512L33.1685 54.75H14.4173L4 73Z" fill="white"/>
<path d="M49.0468 26.9332C46.6045 25.1773 43.8996 23.4383 40.9815 21.7986C38.9644 20.6651 36.9565 19.6343 34.9898 18.7093L33.9455 20.5388C35.7007 21.3861 37.5069 22.3272 39.3333 23.3535C42.5111 25.1392 45.4286 27.002 47.9649 28.8284L49.0468 26.9332Z" fill="white"/>
<path d="M33.9455 20.5388L34.9898 18.7093C22.9995 13.0698 12.5377 11.3632 10.7961 14.2991C9.02687 17.2815 15.6885 25.4542 26.9278 32.8331L28.3472 30.3464C19.2099 24.6026 13.2483 18.9593 14.7086 16.4976C16.1603 14.0503 24.28 15.8727 33.9455 20.5388Z" fill="#0099FF"/>
<path d="M33.4037 33.3493C31.6364 32.3562 29.9434 31.3498 28.3472 30.3464L26.9278 32.8331C28.5674 33.9095 30.3044 34.9691 32.1269 35.9932C35.3586 37.8091 38.4346 39.3196 41.2843 40.5321L42.603 38.222C39.6153 36.7475 36.4794 35.0776 33.4037 33.3493Z" fill="#0099FF"/>
<path d="M57.9062 39.2321L55.8655 38.3552L60.1915 42.0553L64.462 42.551L62.861 41.9521L62.8539 41.9088C62.3049 38.7072 57.1068 32.7281 49.0468 26.9332L47.9649 28.8284C53.5292 32.835 57.2593 36.6662 57.8802 39.1217L57.9062 39.2321Z" fill="#0099FF"/>
<path fill-rule="evenodd" clip-rule="evenodd" d="M45.6693 0H64.4206L49.0468 26.9332C46.6045 25.1773 43.8996 23.4383 40.9815 21.7986C38.9644 20.6651 36.9565 19.6343 34.9898 18.7093L45.6693 0ZM39.3333 23.3535C42.5111 25.1392 45.4286 27.002 47.9649 28.8284L42.603 38.222C39.6153 36.7475 36.4794 35.0776 33.4037 33.3493C31.6364 32.3562 29.9434 31.3498 28.3472 30.3464L33.9455 20.5388C35.7007 21.3861 37.5069 22.3272 39.3333 23.3535ZM41.2843 40.5321C38.4346 39.3196 35.3586 37.8091 32.1269 35.9932C30.3044 34.9691 28.5674 33.9095 26.9278 32.8331L24.8347 36.5L14.4173 54.75H33.1685L41.2843 40.5321Z" fill="white"/>
<path d="M41.2843 40.5321C50.5426 44.471 57.4136 45.2642 59.4835 43.1662C57.7425 44.7923 50.7203 42.2282 42.603 38.222L41.2843 40.5321Z" fill="#0099FF"/>
</svg>
