<svg width="109" height="126" viewBox="0 0 109 126" fill="none" xmlns="http://www.w3.org/2000/svg">
<path d="M63.2903 126H91.4194L109 94.5H49.2258L31.6452 126H63.2903Z" fill="white"/>
<path d="M0 126H31.6452L49.2258 94.5H17.5806L0 126Z" fill="white"/>
<path d="M52.6677 31.6329L50.9131 34.7769C54.3055 36.409 57.8237 38.2606 61.3877 40.3089C66.2358 43.095 70.7248 45.9901 74.7043 48.8491L76.5297 45.5784C72.7415 42.8576 68.601 40.1719 64.1693 37.625C60.2884 35.3947 56.4281 33.3946 52.6677 31.6329Z" fill="white"/>
<path d="M13.2273 24.6807C10.1756 29.9422 19.8894 43.1698 39.1688 55.8196L41.5566 51.5413C26.8698 41.9201 17.4352 32.6046 19.8302 28.4754C22.2107 24.3711 35.2147 27.2242 50.9131 34.7769L52.6677 31.6329C33.0192 22.4278 16.099 19.7296 13.2273 24.6807Z" fill="#0099FF"/>
<path d="M64.2352 67.607L64.2873 67.5136L65.5362 65.2759C60.9103 62.9067 56.1034 60.276 51.3808 57.5619C47.9171 55.5713 44.6224 53.5496 41.5566 51.5413L39.1688 55.8196C41.5037 57.3516 43.9789 58.8751 46.5887 60.375C52.4357 63.7353 58.1485 66.601 63.4959 68.9317L64.2352 67.607Z" fill="#0099FF"/>
<path d="M64.2873 67.5136L64.2352 67.607L63.4959 68.9317C79.341 75.8381 91.9781 78.0469 95.3938 74.5061C92.3582 77.4058 79.8086 72.5855 65.5362 65.2759L64.2873 67.5136Z" fill="#0099FF"/>
<path fill-rule="evenodd" clip-rule="evenodd" d="M17.5806 94.5L35.1613 63L39.1688 55.8196C41.5037 57.3516 43.9789 58.8751 46.5887 60.375C52.4357 63.7353 58.1485 66.601 63.4959 68.9317L49.2258 94.5H17.5806ZM74.7043 48.8491L65.5362 65.2759C60.9103 62.9067 56.1034 60.276 51.3808 57.5619C47.9171 55.5713 44.6224 53.5496 41.5566 51.5413L45.2314 44.9569L45.8608 43.8292L50.9131 34.7769C54.3055 36.409 57.8237 38.2606 61.3877 40.3089C66.2358 43.095 70.7248 45.9901 74.7043 48.8491ZM76.5297 45.5784L79.1954 40.8022L79.2424 40.7179L101.968 0H70.3226L57.3651 23.2165L56.6682 24.4651L52.6677 31.6329C56.4281 33.3946 60.2884 35.3947 64.1693 37.625C68.601 40.1719 72.7415 42.8576 76.5297 45.5784Z" fill="white"/>
<path d="M92.732 67.7156L89.2881 66.2021L96.5886 72.5886L103.796 73.4443L101.094 72.4105L101.082 72.3357C100.127 66.6422 90.8436 55.8594 76.5297 45.5784L74.7043 48.8491C84.7841 56.0909 91.5944 63.1014 92.6881 67.5251L92.732 67.7156Z" fill="#0099FF"/>
</svg>
